<?xml version="1.0" encoding="UTF-8"?>
<svg xmlns="http://www.w3.org/2000/svg" xmlns:xlink="http://www.w3.org/1999/xlink" viewBox="0 0 60 60" width="60px" height="60px">
<g id="surface1582239">
<path style=" stroke:none;fill-rule:nonzero;fill:rgb(100%,100%,100%);fill-opacity:1;" d="M 30 3.601562 C 15.433594 3.601562 3.601562 15.433594 3.601562 30 C 3.601562 43.222656 13.351562 54.167969 26.054688 56.074219 L 27.433594 56.28125 L 27.433594 35.480469 L 21.195312 35.480469 L 21.195312 31.257812 L 27.433594 31.257812 L 27.433594 25.648438 C 27.433594 22.195312 28.261719 19.917969 29.632812 18.492188 C 31.007812 17.066406 33.035156 16.34375 35.855469 16.34375 C 38.109375 16.34375 38.988281 16.480469 39.824219 16.585938 L 39.824219 20.042969 L 36.886719 20.042969 C 35.21875 20.042969 33.851562 20.972656 33.144531 22.210938 C 32.433594 23.449219 32.210938 24.925781 32.210938 26.433594 L 32.210938 31.253906 L 39.558594 31.253906 L 38.90625 35.476562 L 32.210938 35.476562 L 32.210938 56.316406 L 33.574219 56.128906 C 46.457031 54.382812 56.398438 43.351562 56.398438 30 C 56.398438 15.433594 44.566406 3.601562 30 3.601562 Z M 30 6 C 43.269531 6 54 16.730469 54 30 C 54 41.675781 45.644531 51.277344 34.613281 53.441406 L 34.613281 37.878906 L 40.964844 37.878906 L 42.359375 28.855469 L 34.613281 28.855469 L 34.613281 26.433594 C 34.613281 25.1875 34.839844 24.074219 35.222656 23.402344 C 35.609375 22.730469 35.976562 22.441406 36.886719 22.441406 L 42.222656 22.441406 L 42.222656 14.410156 L 41.183594 14.269531 C 40.460938 14.171875 38.820312 13.945312 35.855469 13.945312 C 32.609375 13.945312 29.828125 14.828125 27.90625 16.828125 C 25.984375 18.828125 25.035156 21.804688 25.035156 25.648438 L 25.035156 28.855469 L 18.796875 28.855469 L 18.796875 37.878906 L 25.035156 37.878906 L 25.035156 53.363281 C 14.179688 51.066406 6 41.550781 6 30 C 6 16.730469 16.730469 6 30 6 Z M 30 6 "/>
</g>
</svg>
