<?xml version="1.0" encoding="UTF-8"?>
<svg xmlns="http://www.w3.org/2000/svg" xmlns:xlink="http://www.w3.org/1999/xlink" viewBox="0 0 60 60" width="60px" height="60px">
<g id="surface1602117">
<path style=" stroke:none;fill-rule:nonzero;fill:rgb(100%,100%,100%);fill-opacity:1;" d="M 19.199219 3.601562 C 10.597656 3.601562 3.601562 10.597656 3.601562 19.199219 L 3.601562 40.800781 C 3.601562 49.402344 10.597656 56.398438 19.199219 56.398438 L 40.800781 56.398438 C 49.402344 56.398438 56.398438 49.402344 56.398438 40.800781 L 56.398438 19.199219 C 56.398438 10.597656 49.402344 3.601562 40.800781 3.601562 Z M 19.199219 6 L 40.800781 6 C 48.105469 6 54 11.894531 54 19.199219 L 54 40.800781 C 54 48.105469 48.105469 54 40.800781 54 L 19.199219 54 C 11.894531 54 6 48.105469 6 40.800781 L 6 19.199219 C 6 11.894531 11.894531 6 19.199219 6 Z M 44.398438 13.199219 C 43.074219 13.199219 42 14.273438 42 15.601562 C 42 16.925781 43.074219 18 44.398438 18 C 45.726562 18 46.800781 16.925781 46.800781 15.601562 C 46.800781 14.273438 45.726562 13.199219 44.398438 13.199219 Z M 30 16.800781 C 22.722656 16.800781 16.800781 22.722656 16.800781 30 C 16.800781 37.277344 22.722656 43.199219 30 43.199219 C 37.277344 43.199219 43.199219 37.277344 43.199219 30 C 43.199219 22.722656 37.277344 16.800781 30 16.800781 Z M 30 19.199219 C 35.980469 19.199219 40.800781 24.019531 40.800781 30 C 40.800781 35.980469 35.980469 40.800781 30 40.800781 C 24.019531 40.800781 19.199219 35.980469 19.199219 30 C 19.199219 24.019531 24.019531 19.199219 30 19.199219 Z M 30 19.199219 "/>
</g>
</svg>
